<?xml version="1.0" encoding="utf-8"?>
<svg width="1600" height="900" viewBox="0 0 1600 900" xmlns="http://www.w3.org/2000/svg">
  <defs>
    <linearGradient id="bgGrad" x1="0%" y1="0%" x2="100%" y2="100%">
      <stop offset="0%" style="stop-color:#1e1e1e;stop-opacity:1" />
      <stop offset="100%" style="stop-color:#303030;stop-opacity:1" />
    </linearGradient>
    <linearGradient id="iconGrad" x1="0%" y1="0%" x2="100%" y2="0%">
      <stop offset="0%" style="stop-color:#ffc82c;stop-opacity:1" />
      <stop offset="100%" style="stop-color:#e0afa0;stop-opacity:1" />
    </linearGradient>
    <linearGradient id="borderGrad" x1="0%" y1="0%" x2="100%" y2="100%">
      <stop offset="0%" style="stop-color:#ffc82c;stop-opacity:0.3" />
      <stop offset="100%" style="stop-color:#e0afa0;stop-opacity:0.3" />
    </linearGradient>
  </defs>

  <rect width="1600" height="900" fill="url(#bgGrad)" />

  <rect x="16" y="16" width="1568" height="868" fill="none" stroke="url(#borderGrad)" stroke-width="1.5" rx="4" />

  <polyline points="16,60 16,16 60,16" fill="none" stroke="#ffc82c" stroke-width="2.5" opacity="0.5" />
  <polyline points="1540,16 1584,16 1584,60" fill="none" stroke="#ffc82c" stroke-width="2.5" opacity="0.5" />
  <polyline points="16,840 16,884 60,884" fill="none" stroke="#e0afa0" stroke-width="2.5" opacity="0.5" />
  <polyline points="1540,884 1584,884 1584,840" fill="none" stroke="#e0afa0" stroke-width="2.5" opacity="0.5" />

  <g transform="translate(646, 286) scale(14)" fill="url(#iconGrad)" opacity="0.75">
    <polygon points="21 19 3 19 2 22 22 22 21 19"/>
    <path d="M11,9.859V12a1,1,0,0,0,2,0V9.859a4,4,0,1,0-2,0Z"/>
    <path d="M18.291,12.485A1,1,0,0,0,17.434,12H15a3,3,0,0,1-6,0H6.566a1,1,0,0,0-.857.485L3,17H21Z"/>
  </g>
</svg>